<?xml version="1.0" encoding="utf-8"?>
<!-- Generator: Adobe Illustrator 16.0.0, SVG Export Plug-In . SVG Version: 6.00 Build 0)  -->
<!DOCTYPE svg PUBLIC "-//W3C//DTD SVG 1.1//EN" "http://www.w3.org/Graphics/SVG/1.1/DTD/svg11.dtd">
<svg version="1.1" id="Layer_1" xmlns="http://www.w3.org/2000/svg" xmlns:xlink="http://www.w3.org/1999/xlink" x="0px" y="0px"
	 width="489.895px" height="117.401px" viewBox="0 0 489.895 117.401" enable-background="new 0 0 489.895 117.401"
	 xml:space="preserve">
<g>
	<defs>
		<rect id="SVGID_1_" width="489.895" height="117.401"/>
	</defs>
	<clipPath id="SVGID_2_">
		<use xlink:href="#SVGID_1_"  overflow="visible"/>
	</clipPath>
	<path clip-path="url(#SVGID_2_)" fill="#0288D1" d="M109.305,82.782c0,0-5.476,1.788-13.969,1.788
		c-11.732,0-19.666-8.046-19.666-18.103V44.565c0-9.946,7.934-18.103,19.666-18.103h1.453c8.716,0,16.986,7.711,16.986,16.425v1.678
		c0,7.486-4.805,11.733-12.739,14.749l-16.538,6.37v0.447c0,5.588,4.693,10.281,10.727,10.281c8.828,0,14.08-2.57,14.08-2.57V82.782
		z M84.498,56.633l15.756-6.034c3.352-1.23,5.029-3.129,5.029-5.364v-1.342c0-4.804-4.471-9.274-9.276-9.274h-0.782
		c-6.034,0-10.727,5.029-10.727,10.616V56.633z"/>
	<path clip-path="url(#SVGID_2_)" fill="#0288D1" d="M127.52,65.795c0,5.588,4.915,10.617,11.173,10.617
		c6.146,0,10.952-5.029,10.952-11.174h8.716c0,11.286-7.822,19.33-19.668,19.33c-12.068,0-19.889-8.044-19.889-18.215V44.565
		c0-9.946,7.821-18.103,19.889-18.103c11.398,0,19.22,8.157,19.22,18.996h-8.716c0-6.146-4.358-10.839-10.504-10.839
		s-11.173,5.029-11.173,10.615V65.795z"/>
	<path clip-path="url(#SVGID_2_)" fill="#0288D1" d="M163.389,27.467h7.71V11.601h8.828v15.867h14.416v8.158h-14.416v36.764
		c0,2.123,1.676,3.91,3.799,3.91h2.235v8.271h-2.235c-6.927,0-12.627-5.589-12.627-12.517V35.625h-7.71V27.467z"/>
	<path clip-path="url(#SVGID_2_)" fill="#0288D1" d="M238.927,66.467c0,10.057-7.821,18.102-19.666,18.102
		c-12.068,0-19.89-8.045-19.89-18.102V44.565c0-9.945,7.822-18.103,19.89-18.103c11.845,0,19.666,8.158,19.666,18.103V66.467z
		 M230.212,45.235c0-5.586-4.806-10.615-11.063-10.615c-6.145,0-11.063,5.029-11.063,10.615v20.562
		c0,5.587,4.918,10.616,11.175,10.616c6.145,0,10.951-5.029,10.951-10.616V45.235z"/>
	<path clip-path="url(#SVGID_2_)" fill="#0288D1" d="M268.986,35.066c0,0-2.459-0.559-4.47-0.559
		c-6.258,0-11.845,5.365-11.845,10.951v37.994h-8.715V27.58h8.715v4.804c2.682-3.576,7.262-5.922,12.627-5.922
		c1.787,0,3.688,0.446,3.688,0.446V35.066z"/>
	<polygon clip-path="url(#SVGID_2_)" fill="#0288D1" points="69.589,11.6 41.84,91.067 19.857,33.378 0,33.378 0,41.848 
		14.021,41.848 42.187,115.762 75.603,20.07 165.761,20.07 165.761,11.6 	"/>
	<path clip-path="url(#SVGID_2_)" fill="#29B6F6" d="M327.867,76.413c-6.257,0-11.175-5.029-11.175-10.617V45.235
		c0-5.586,5.028-10.615,11.175-10.615s10.505,4.693,10.505,10.838h8.715c0-10.838-7.823-18.996-19.22-18.996
		c-12.068,0-19.89,8.158-19.89,18.103v21.79c0,10.17,7.821,18.215,19.89,18.215c11.845,0,19.666-8.045,19.666-19.33h-8.715
		C338.818,71.383,334.014,76.413,327.867,76.413"/>
	<path clip-path="url(#SVGID_2_)" fill="#29B6F6" d="M489.895,35.625v-8.158h-14.415V11.6h-8.829v15.867h-7.709v8.158h7.709v36.428
		c0,6.928,5.699,12.516,12.627,12.516h2.235v-8.27h-2.235c-2.122,0-3.798-1.787-3.798-3.91V35.625H489.895z"/>
	<path clip-path="url(#SVGID_2_)" fill="#29B6F6" d="M454.024,71.606V44.9c0-10.28-8.156-18.438-18.325-18.438
		c-6.034,0-9.723,1.9-12.628,4.47V27.58h-8.715v55.872h8.715V45.012c0-5.7,5.588-10.505,11.846-10.505
		c5.699,0,10.392,5.141,10.392,11.287v25.142c0,6.928,5.587,12.516,12.516,12.516h1.118v-8.27h-1.118
		C455.813,75.182,454.024,73.506,454.024,71.606"/>
	<path clip-path="url(#SVGID_2_)" fill="#29B6F6" d="M392.716,26.462h-1.452c-11.732,0-19.667,8.158-19.667,18.103v21.902
		c0,10.057,7.935,18.102,19.667,18.102c8.492,0,13.968-1.787,13.968-1.787v-8.939c0,0-5.251,2.57-14.08,2.57
		c-6.034,0-10.728-4.693-10.728-10.281v-0.447l16.538-6.369c7.937-3.017,12.739-7.264,12.739-14.75v-1.677
		C409.701,34.173,401.433,26.462,392.716,26.462 M401.208,45.235c0,2.235-1.675,4.134-5.029,5.364l-15.755,6.034V45.235
		c0-5.586,4.693-10.615,10.728-10.615h0.782c4.806,0,9.274,4.47,9.274,9.274V45.235z"/>
	<path clip-path="url(#SVGID_2_)" fill="#29B6F6" d="M291.019,11.761c9.106-9.51,14.125-0.172,22.392-5.895
		c4.074-2.824,0.92-6.672-2.825-5.717c-3.742,0.949-20.865,4.156-28.506,16.299c0,0-6.82,8.763-4.992,20.105
		c1.604,9.92,9.174,30.28,9.174,30.28c2.274,5.178,3.91,10.672,4.997,16.307c0.967,5.02,2.272,10.102,0.987,15.76
		c-1.338,5.893-7.709,12.891-16.946,12.024c-7.472-0.704-10.188,0.888-10.368,4c-0.18,3.106,5.143,4.077,18.861-1.786
		c18.251-7.807,18.678-20.182,19.218-30.086c0.36-6.607-1.532-10.814-2.743-17.01c-1.63-8.328-5.208-17.474-9.121-26.228
		C287.626,31.945,281.631,22.182,291.019,11.761"/>
	<path clip-path="url(#SVGID_2_)" fill="#29B6F6" d="M367.874,7.347c-0.863-0.001-1.683,0.196-2.417,0.542
		c-1.764-2.997-5.023-5.007-8.75-5.01c-0.088,0-0.171,0.012-0.257,0.015c-2.969,0.075-5.618,1.428-7.425,3.525
		c-0.031,0.034-0.066,0.066-0.097,0.102c-0.757-0.284-1.575-0.451-2.43-0.451c-3.847,0.001-6.962,3.116-6.963,6.963
		c0.001,3.845,3.116,6.961,6.963,6.962c0.854,0,1.673-0.167,2.43-0.451c1.861,2.219,4.653,3.642,7.778,3.642
		c3.727-0.003,6.986-2.013,8.75-5.01c0.734,0.346,1.554,0.543,2.417,0.542c3.141-0.001,5.685-2.545,5.685-5.685
		C373.559,9.892,371.015,7.348,367.874,7.347 M370.17,15.328c-0.591,0.589-1.396,0.95-2.296,0.952
		c-0.809-0.002-1.538-0.293-2.111-0.783l-0.474-0.405l-0.805-0.689l-0.642,1.559c-1.155,2.806-3.913,4.786-7.136,4.784
		c-2.661,0-5-1.344-6.391-3.392l-0.629-0.928l-0.979,0.55c-0.115,0.065-0.236,0.118-0.355,0.172
		c-0.566,0.258-1.19,0.408-1.854,0.408c-1.254,0-2.376-0.503-3.2-1.324c-0.821-0.822-1.322-1.946-1.326-3.199
		c0.004-1.254,0.505-2.378,1.326-3.2c0.824-0.821,1.946-1.324,3.2-1.324c0.413,0,0.804,0.074,1.182,0.181
		c0.114,0.032,0.233,0.054,0.344,0.094c-0.5,2.04-0.101,3.944,0.913,5.145c1.625,1.931,5.181,1.928,6.29-1.439
		c-1.627,2.541-5.182,1.829-5.283-1.016c-0.065-1.833,0.77-3.519,2.207-4.66c1.277-0.937,2.849-1.495,4.556-1.495
		c3.223-0.002,5.98,1.978,7.136,4.784l0.642,1.558l1.103-0.943l0.176-0.15c0.573-0.49,1.303-0.782,2.111-0.783
		c0.9,0.001,1.705,0.361,2.296,0.951c0.59,0.592,0.95,1.396,0.95,2.297C371.12,13.933,370.76,14.737,370.17,15.328"/>
	<path clip-path="url(#SVGID_2_)" fill="#29B6F6" d="M360.905,72.389v-44.81h-8.716v44.474c0,6.928,5.587,12.516,12.515,12.516
		h2.236v-8.27h-2.236C362.583,76.299,360.905,74.512,360.905,72.389"/>
</g>
</svg>
